{"title":"Soggade Chinni Nayana 2016 Movies HDRip XviD New +Sample ~ ☻rDX☻","uid":13607319,"size":740574895,"categoryP":"video","categoryS":"movies","magnet":"?xt=urn:btih:b0dc3391785a2190875b2c980bcdf49132fc1c3e&amp;dn=Soggade+Chinni+Nayana+2016+Movies+HDRip+XviD+New+%2BSample+%7E+%E2%98%BBrDX%E2%98%BB&amp;tr=udp%3A%2F%2Ftracker.leechers-paradise.org%3A6969&amp;tr=udp%3A%2F%2Fzer0day.ch%3A1337&amp;tr=udp%3A%2F%2Fopen.demonii.com%3A1337&amp;tr=udp%3A%2F%2Ftracker.coppersurfer.tk%3A6969&amp;tr=udp%3A%2F%2Fexodus.desync.com%3A6969","seeders":0,"leechers":1,"uploader":"basicssom","files":2,"time":1455895754,"description":"----------------------------------------------------------------\r\nSoggade Chinni Nayana 2016 Telugu Movies HDRip XviD AAC New Source with Sample ~ ☻rDX☻\r\n\r\nSCREEN SHOTS &amp; POSTER:\r\n  \nhttp://mobileshosting.com/2016/2/domain/index.htm  \nhttp://mobileshosting.com/2016/2/domain/1.html  \nhttp://mobileshosting.com/2016/2/domain/2.html  \nhttp://mobileshosting.com/2016/2/domain/3.html  \nhttp://mobileshosting.com/2016/2/domain/4.html  \nhttp://mobileshosting.com/2016/2/domain/5.html  \nhttp://mobileshosting.com/2016/2/domain/6.html  \nhttp://mobileshosting.com/2016/2/domain/7.html  \nhttp://mobileshosting.com/2016/2/domain/8.html  \nhttp://mobileshosting.com/2016/2/domain/9.html  \nhttp://mobileshosting.com/2016/2/domain/10.html\r\n\r\nFormat                                   : Matroska\r\nFormat version                           : Version 4 / Version 2\r\nFile size                                : 702 MiB\r\nDuration                                 : 2h 23mn\r\nOverall bit rate                         : 683 Kbps\r\nMovie name                               : Soggade Chinni Nayana 2016 Telugu Movies HDRip XviD AAC New Source ☻rDX☻\r\n\r\nVideo\r\nID                                       : 1\r\nFormat                                   : AVC\r\nFormat/Info                              : Advanced Video Codec\r\nFormat profile                           :   \r\nFormat settings, CABAC                   : Yes\r\nFormat settings, ReFrames                : 4 frames\r\nCodec ID                                 : V_MPEG4/ISO/AVC\r\nDuration                                 : 2h 23mn\r\nBit rate                                 : 585 Kbps\r\nWidth                                    : 640 pixels\r\nHeight                                   : 264 pixels\r\nDisplay aspect ratio                     : 2.40:1\r\nFrame rate mode                          : Constant\r\nFrame rate                               : 25.168 fps\r\nOriginal frame rate                      : 25.167 fps\r\nColor space                              : YUV\r\nChroma subsampling                       : 4:2:0\r\nBit depth                                : 8 bits\r\nScan type                                : Progressive\r\nBits/(Pixel*Frame)                       : 0.138\r\nStream size                              : 589 MiB (84%)\r\nTitle                                    : ☻rDX☻\r\nWriting library                          : XviD\r\nLanguage                                 : Telugu\r\nDefault                                  : Yes\r\nForced                                   : Yes\r\n\r\nAudio\r\nID                                       : 2\r\nFormat                                   : MPEG Audio\r\nFormat version                           : Version 1\r\nFormat profile                           : Layer 3\r\nMode                                     : Joint stereo\r\nMode extension                           : MS Stereo\r\nCodec ID                                 : A_MPEG/L3\r\nCodec ID/Hint                            : MP3\r\nDuration                                 : 2h 23mn\r\nBit rate mode                            : Constant\r\nBit rate                                 : 96.0 Kbps\r\nChannel(s)                               : 2 channels\r\nSampling rate                            : 44.1 KHz\r\nCompression mode                         : Lossy\r\nStream size                              : 98.7 MiB (14%)\r\nTitle                                    : ☻rDX☻\r\nWriting library                          : LAME3.98.2\r\nLanguage                                 : Telugu\r\nDefault                                  : Yes\r\nForced                                   : Yes\r\n\r\nIMDB                                      \nhttp://gb.imdb.com/title/tt5340522/","torrent":{"xt":"urn:btih:b0dc3391785a2190875b2c980bcdf49132fc1c3e","amp;dn":"Soggade+Chinni+Nayana+2016+Movies+HDRip+XviD+New+%2BSample+%7E+%E2%98%BBrDX%E2%98%BB","amp;tr":["udp%3A%2F%2Ftracker.leechers-paradise.org%3A6969","udp%3A%2F%2Fzer0day.ch%3A1337","udp%3A%2F%2Fopen.demonii.com%3A1337","udp%3A%2F%2Ftracker.coppersurfer.tk%3A6969","udp%3A%2F%2Fexodus.desync.com%3A6969"],"infoHash":"b0dc3391785a2190875b2c980bcdf49132fc1c3e","infoHashBuffer":{"type":"Buffer","data":[176,220,51,145,120,90,33,144,135,91,44,152,11,205,244,145,50,252,28,62]},"announce":[],"urlList":[]}}